Coordinates
version=1
nRows=8
nColumns=63
inDegrees=yes

Units are S.I. units (second, meters, Newtons, ...)
If the header above contains a line with 'inDegrees', this indicates whether rotational values are in degrees (yes) or radians (no).

endheader
time	pelvis_tilt	pelvis_list	pelvis_rotation	pelvis_tx	pelvis_ty	pelvis_tz	hip_flexion_r	hip_adduction_r	hip_rotation_r	knee_angle_r	knee_angle_r_beta	ankle_angle_r	subtalar_angle_r	mtp_angle_r	hip_flexion_l	hip_adduction_l	hip_rotation_l	knee_angle_l	knee_angle_l_beta	ankle_angle_l	subtalar_angle_l	mtp_angle_l	L5_S1_Flex_Ext	L5_S1_Lat_Bending	L5_S1_axial_rotation	L4_L5_Flex_Ext	L4_L5_Lat_Bending	L4_L5_axial_rotation	L3_L4_Flex_Ext	L3_L4_Lat_Bending	L3_L4_axial_rotation	L2_L3_Flex_Ext	L2_L3_Lat_Bending	L2_L3_axial_rotation	L1_L2_Flex_Ext	L1_L2_Lat_Bending	L1_L2_axial_rotation	L1_T12_Flex_Ext	L1_T12_Lat_Bending	L1_T12_axial_rotation	Abs_r3	Abs_r2	Abs_r1	Abs_t1	Abs_t2	neck_flexion	neck_bending	neck_rotation	arm_flex_r	arm_add_r	arm_rot_r	elbow_flex_r	pro_sup_r	wrist_flex_r	wrist_dev_r	arm_flex_l	arm_add_l	arm_rot_l	elbow_flex_l	pro_sup_l	wrist_flex_l	wrist_dev_l
      2.89830508	     -1.86311702	     -3.74472893	     95.02420676	      0.26772818	      0.68638172	      0.90747560	      4.13535934	     -1.50965399	      1.63020574	     12.27493033	      0.21423795	     23.83808742	     -3.55361932	      0.00000000	      2.14103505	      0.74542782	    -12.88219469	      7.87398437	      0.13742695	     27.52392015	     12.18527410	      0.00000000	      0.00844366	     -0.18800574	      0.69243944	      0.01568073	     -0.25004763	      0.73571690	      0.01387209	     -0.45711716	      0.73571690	      0.00965026	     -0.45711716	      0.60588451	      0.00784078	     -0.38338131	      0.56260704	      0.00482471	     -0.29122089	      0.51932958	      0.06031224	     -2.12675853	      3.85114043	      0.00000000	      0.00000000	     21.45958709	      1.46949423	      5.69446275	     16.35024597	    -11.45606026	     63.88969164	     53.56981672	     79.44942570	      3.50506520	      3.46080710	     17.29320917	    -11.84097191	     68.33139721	     57.12979361	     62.62360044	     -5.19337358	      9.06006617
      2.91525424	     -1.78696043	     -3.55339885	     95.00716148	      0.26745534	      0.68679024	      0.90717628	      3.96928248	     -1.35069538	      2.42311817	     12.33675766	      0.21531704	     23.69367933	     -4.55583240	      0.00000000	      1.83918412	      0.67099430	    -13.20796470	      7.68287581	      0.13409148	     27.56094697	     12.59049178	      0.00000000	     -0.00532502	     -0.18580542	      0.83672605	     -0.00988910	     -0.24712121	      0.88902143	     -0.00874848	     -0.45176731	      0.88902143	     -0.00608597	     -0.45176731	      0.73213529	     -0.00494482	     -0.37889442	      0.67983991	     -0.00304272	     -0.28781260	      0.62754454	     -0.03803610	     -2.10186812	      4.65361926	      0.00000000	      0.00000000	     21.07527150	      0.62105281	      3.82122793	     15.47773994	    -11.62920097	     61.66865204	     53.70975960	     83.46912962	      4.21862401	      2.94217693	     18.59998489	    -11.62485658	     71.64112541	     56.73752474	     62.14850578	     -6.48720396	      7.53212616
      2.93220339	     -1.72511372	     -3.54760209	     95.12806332	      0.26722991	      0.68689673	      0.90694700	      3.94124551	     -1.28400441	      2.42225238	     12.33438290	      0.21527559	     23.64103978	     -4.72620339	      0.00000000	      1.82483219	      0.63000466	    -12.82398257	      7.68082926	      0.13405576	     27.50094227	     12.26041818	      0.00000000	      0.00044501	     -0.18537171	      0.88964083	      0.00082643	     -0.24654438	      0.94524339	      0.00073110	     -0.45071278	      0.94524339	      0.00050860	     -0.45071278	      0.77843573	      0.00041323	     -0.37801000	      0.72283318	      0.00025428	     -0.28714078	      0.66723063	      0.00317865	     -2.09696189	      4.94791543	      0.00000000	      0.00000000	     20.92031820	      0.55165913	      3.33129214	     15.16023101	    -11.75864583	     61.16342513	     53.84217962	     83.64305078	      4.14706342	      3.05113879	     19.57058993	    -11.52385610	     73.95268248	     56.50005303	     61.59951258	     -6.70473171	      7.28974353
      2.94915254	     -1.67445816	     -3.59170565	     95.19490899	      0.26707472	      0.68687199	      0.90685685	      3.97414983	     -1.24890734	      2.31587153	     12.36173770	      0.21575302	     23.49540696	     -4.80785203	      0.00000000	      1.86490423	      0.60890563	    -12.47409592	      7.70772210	      0.13452513	     27.43969256	     11.86423933	      0.00000000	      0.00644417	     -0.18661868	      0.97197258	      0.01196747	     -0.24820285	      1.03272087	      0.01058713	     -0.45374467	      1.03272087	      0.00736504	     -0.45374467	      0.85047601	      0.00598406	     -0.38055282	      0.78972772	      0.00368220	     -0.28907234	      0.72897943	      0.04603007	     -2.11106788	      5.40581990	      0.00000000	      0.00000000	     20.89682393	      0.43673963	      2.59308789	     14.74028142	    -11.94362239	     60.45469952	     54.05548784	     83.38184691	      4.06004618	      3.14228271	     20.76666764	    -11.33359474	     76.62578281	     56.18660989	     61.24182927	     -6.66107473	      7.17274270
      2.96610169	     -1.61867220	     -3.60828517	     95.24313538	      0.26694840	      0.68686429	      0.90653920	      3.89268234	     -1.20754841	      2.16811858	     12.29297528	      0.21455289	     23.37815714	     -4.82008464	      0.00000000	      1.80476157	      0.59155440	    -12.20725226	      7.63454332	      0.13324792	     27.20483820	     11.56707086	      0.00000000	      0.00956668	     -0.18308902	      1.00110577	      0.01776627	     -0.24350839	      1.06367488	      0.01571709	     -0.44516264	      1.06367488	      0.01093375	     -0.44516264	      0.87596755	      0.00888361	     -0.37335513	      0.81339844	      0.00546640	     -0.28360489	      0.75082933	      0.06833380	     -2.07113960	      5.56784998	      0.00000000	      0.00000000	     20.99897430	      0.46998773	      2.37982655	     14.59904555	    -12.04496985	     60.34885809	     54.17956474	     82.94213428	      4.04180448	      3.24761096	     21.59829710	    -11.16274553	     78.42473946	     55.89866820	     61.26618935	     -6.41987285	      7.53426712
      2.98305085	     -1.62798872	     -3.70932959	     95.07315737	      0.26733495	      0.68664089	      0.90654199	      4.01410455	     -1.18614901	      2.56969387	     12.41110422	      0.21661463	     23.05529846	     -5.46662405	      0.00000000	      1.91937912	      0.60405804	    -12.21476213	      7.78314683	      0.13584154	     27.10953281	     11.31591830	      0.00000000	      0.01868635	     -0.19514818	      1.12359075	      0.03470243	     -0.25954708	      1.19381517	      0.03069981	     -0.47448330	      1.19381517	      0.02135663	     -0.47448330	      0.98314191	      0.01735215	     -0.39794618	      0.91291749	      0.01067738	     -0.30228454	      0.84269306	      0.13347475	     -2.20755529	      6.24907469	      0.00000000	      0.00000000	     21.11371780	      0.38387654	      1.51083542	     14.16828302	    -12.17161597	     59.39185413	     54.49381128	     83.85803590	      4.20268620	      3.24148664	     22.78194680	    -10.89010944	     80.90997262	     55.55541524	     60.18637390	     -6.54800904	      7.32100852
      3.00000000	     -1.62278613	     -3.82793633	     95.03436316	      0.26745428	      0.68642055	      0.90652969	      4.10111188	     -1.21905989	      2.36158800	     12.48029050	      0.21782216	     22.80900196	     -5.44142336	      0.00000000	      2.01723035	      0.62409463	    -12.17044783	      7.83963517	      0.13682745	     26.95424724	     11.13244460	      0.00000000	      0.03379970	     -0.20006390	      1.14378912	      0.06276942	     -0.26608498	      1.21527594	      0.05552953	     -0.48643536	      1.21527594	      0.03862968	     -0.48643536	      1.00081548	      0.03138640	     -0.40797030	      0.92932866	      0.01931315	     -0.30989898	      0.85784184	      0.24142787	     -2.26316282	      6.36141195	      0.00000000	      0.00000000	     21.20879209	      0.45693734	      1.43024310	     14.24223844	    -12.26209740	     59.60814942	     54.66250853	     83.52476425	      4.21735833	      3.25280547	     23.02025168	    -10.81736608	     81.09277696	     55.45691569	     60.14874228	     -6.53872518	      7.38000597
      3.01694915	     -1.65519664	     -3.76020520	     94.92392018	      0.26759746	      0.68642945	      0.90676653	      4.02447067	     -1.26303114	      2.39194883	     12.58104482	      0.21958066	     22.55597324	     -5.60586812	      0.00000000	      1.93447902	      0.68217751	    -12.08147394	      7.91368862	      0.13811992	     26.81551957	     10.74357227	      0.00000000	      0.01737590	     -0.21136837	      1.19645548	      0.03226879	     -0.28111994	      1.27123395	      0.02854687	     -0.51392107	      1.27123395	      0.01985892	     -0.51392107	      1.04689855	      0.01613526	     -0.43102239	      0.97212008	      0.00992859	     -0.32740961	      0.89734161	      0.12411433	     -2.39104133	      6.65432646	      0.00000000	      0.00000000	     21.20196287	      0.58410710	      0.81784621	     14.73053994	    -12.53237856	     60.55305458	     54.91445765	     83.70668762	      3.96921170	      2.97839704	     23.65235431	    -10.67051280	     81.84416495	     55.39907744	     60.15161212	     -7.04929594	      6.98079137
